<svg width="52" height="52" viewBox="0 0 52 52" fill="none" xmlns="http://www.w3.org/2000/svg">
<path fill-rule="evenodd" clip-rule="evenodd" d="M26 52C40.3594 52 52 40.3594 52 26C52 11.6406 40.3594 0 26 0C11.6406 0 0 11.6406 0 26C0 40.3594 11.6406 52 26 52Z" fill="white"/>
<path d="M36.1562 34.6409C36.1565 34.8466 36.0929 35.0473 35.9743 35.2154C35.8557 35.3835 35.6879 35.5106 35.4941 35.5794L29.25 37.7812H23.1562L18.2812 36.1562H16.6562V30.875L18.6875 30.0625H21.125L27.2188 31.2812L28.0312 32.0938V33.3125H22.3438L26 35.3438H29.25L34.8806 33.6862C34.9716 33.6591 35.066 33.6455 35.1609 33.6456C35.4248 33.6461 35.6777 33.7511 35.8643 33.9376C36.0508 34.1242 36.1558 34.3771 36.1562 34.6409Z" fill="#FFDAAA"/>
<path d="M32.0938 15.8438V20.7188C32.1281 22.7755 31.5015 24.789 30.3063 26.4631C29.2053 27.9338 27.6819 28.8438 26 28.8438C22.6363 28.8438 19.9062 25.2078 19.9062 20.7188V15.8438L26 14.2188L32.0938 15.8438Z" fill="#43CAF9"/>
<path d="M32.0935 15.8437V20.7187C32.1278 22.7755 31.5013 24.789 30.306 26.4631C29.2051 27.9337 27.6816 28.8437 25.9998 28.8437C24.261 28.8437 22.697 27.8728 21.5879 26.3169C22.4022 26.8965 23.3753 27.2113 24.3748 27.2187C26.0566 27.2187 27.5801 26.3087 28.681 24.8381C29.8763 23.164 30.5028 21.1505 30.4685 19.0937V15.4091L32.0935 15.8437Z" fill="#00B8F8"/>
<path d="M29.25 20.7188V22.3438C29.25 22.4515 29.2072 22.5548 29.131 22.631C29.0548 22.7072 28.9515 22.75 28.8438 22.75H27.625C27.5173 22.75 27.4139 22.7928 27.3377 22.869C27.2616 22.9452 27.2188 23.0485 27.2188 23.1562V24.375C27.2188 24.4827 27.1759 24.5861 27.0998 24.6623C27.0236 24.7384 26.9202 24.7812 26.8125 24.7812H25.1875C25.0798 24.7812 24.9764 24.7384 24.9002 24.6623C24.8241 24.5861 24.7812 24.4827 24.7812 24.375V23.1562C24.7812 23.0485 24.7384 22.9452 24.6623 22.869C24.5861 22.7928 24.4827 22.75 24.375 22.75H23.1562C23.0485 22.75 22.9452 22.7072 22.869 22.631C22.7928 22.5548 22.75 22.4515 22.75 22.3438V20.7188C22.75 20.611 22.7928 20.5077 22.869 20.4315C22.9452 20.3553 23.0485 20.3125 23.1562 20.3125H24.375C24.4827 20.3125 24.5861 20.2697 24.6623 20.1935C24.7384 20.1173 24.7812 20.014 24.7812 19.9062V18.6875C24.7812 18.5798 24.8241 18.4764 24.9002 18.4002C24.9764 18.3241 25.0798 18.2812 25.1875 18.2812H26.8125C26.9202 18.2812 27.0236 18.3241 27.0998 18.4002C27.1759 18.4764 27.2188 18.5798 27.2188 18.6875V19.9062C27.2188 20.014 27.2616 20.1173 27.3377 20.1935C27.4139 20.2697 27.5173 20.3125 27.625 20.3125H28.8438C28.9515 20.3125 29.0548 20.3553 29.131 20.4315C29.2072 20.5077 29.25 20.611 29.25 20.7188Z" fill="#E5F5FD"/>
<path d="M16.6562 29.6562V36.9688L14.2188 37.375V29.25L16.6562 29.6562Z" fill="#43CAF9"/>
<path d="M36.0019 33.5197C35.8281 33.388 35.6257 33.2992 35.4111 33.2603C35.1965 33.2215 34.9758 33.2338 34.7669 33.2963L29.1931 34.9375H26.1056L23.9119 33.7188H28.0312C28.139 33.7188 28.2423 33.676 28.3185 33.5998C28.3947 33.5236 28.4375 33.4203 28.4375 33.3125V32.0938C28.4367 31.9861 28.3945 31.8828 28.3197 31.8053L27.5072 30.9928C27.4502 30.937 27.3782 30.8989 27.3 30.8831L21.2063 29.6644C21.1794 29.6597 21.1522 29.657 21.125 29.6563H18.6875C18.636 29.6555 18.5849 29.6651 18.5372 29.6847L17.0625 30.2738V29.6563C17.0628 29.5596 17.0286 29.466 16.966 29.3923C16.9035 29.3185 16.8167 29.2695 16.7213 29.2541L14.2838 28.8478C14.2254 28.8396 14.166 28.8436 14.1093 28.8597C14.0527 28.8758 14 28.9036 13.9547 28.9413C13.9103 28.9796 13.8747 29.027 13.8502 29.0802C13.8256 29.1335 13.8128 29.1914 13.8125 29.25V37.375C13.8125 37.4828 13.8553 37.5861 13.9315 37.6623C14.0077 37.7385 14.111 37.7813 14.2188 37.7813C14.2405 37.7819 14.2623 37.7806 14.2838 37.7772L16.7213 37.3709C16.8167 37.3555 16.9035 37.3065 16.966 37.2328C17.0286 37.159 17.0628 37.0654 17.0625 36.9688V36.5625H18.2162L23.0262 38.1672C23.0684 38.1799 23.1122 38.1867 23.1562 38.1875H29.25C29.2958 38.1877 29.3412 38.1794 29.3841 38.1631L35.6281 35.9613C35.9012 35.8648 36.1377 35.686 36.3051 35.4495C36.4724 35.2131 36.5623 34.9306 36.5625 34.6409C36.5637 34.4231 36.5136 34.2081 36.4162 34.0133C36.3188 33.8185 36.1769 33.6494 36.0019 33.5197ZM16.25 36.6234L14.625 36.8956V29.7294L16.25 30.0016V36.6234ZM35.36 35.1934L29.1809 37.375H23.2212L18.4113 35.7703C18.3691 35.7576 18.3253 35.7508 18.2812 35.75H17.0625V31.1513L18.7647 30.4688H21.0844L27.0197 31.655L27.625 32.2603V32.9063H22.3438C22.2541 32.9065 22.1671 32.9364 22.0963 32.9913C22.0254 33.0461 21.9747 33.1229 21.952 33.2095C21.9293 33.2962 21.9359 33.388 21.9707 33.4705C22.0056 33.5531 22.0667 33.6218 22.1447 33.6659L25.8009 35.6972C25.8613 35.7326 25.9301 35.7508 26 35.75H29.25C29.2886 35.7509 29.327 35.7454 29.3637 35.7338L34.9984 34.0763C35.0857 34.0497 35.178 34.0444 35.2677 34.0606C35.3574 34.0769 35.442 34.1143 35.5144 34.1697C35.5995 34.2333 35.6657 34.3188 35.706 34.4171C35.7464 34.5153 35.7593 34.6227 35.7435 34.7278C35.7276 34.8328 35.6836 34.9316 35.6161 35.0136C35.5486 35.0956 35.4601 35.1578 35.36 35.1934Z" fill="#1C3C6A"/>
<path d="M26 29.25C29.5839 29.25 32.5 25.4227 32.5 20.7188V15.8438C32.5 15.7543 32.4704 15.6673 32.4159 15.5963C32.3614 15.5254 32.285 15.4744 32.1986 15.4513L26.1048 13.8263C26.0361 13.808 25.9639 13.808 25.8952 13.8263L19.8014 15.4513C19.715 15.4744 19.6386 15.5254 19.5841 15.5963C19.5296 15.6673 19.5 15.7543 19.5 15.8438V20.7188C19.5 25.4227 22.4161 29.25 26 29.25ZM20.3125 16.1562L26 14.6392L31.6875 16.1562V20.7188C31.6875 24.975 29.1362 28.4375 26 28.4375C22.8637 28.4375 20.3125 24.975 20.3125 20.7188V16.1562Z" fill="#1C3C6A"/>
<path d="M24.375 23.1562V24.375C24.375 24.5905 24.4606 24.7972 24.613 24.9495C24.7653 25.1019 24.972 25.1875 25.1875 25.1875H26.8125C27.028 25.1875 27.2347 25.1019 27.387 24.9495C27.5394 24.7972 27.625 24.5905 27.625 24.375V23.1562H28.8438C29.0592 23.1562 29.2659 23.0706 29.4183 22.9183C29.5706 22.7659 29.6562 22.5592 29.6562 22.3438V20.7188C29.6562 20.5033 29.5706 20.2966 29.4183 20.1442C29.2659 19.9919 29.0592 19.9062 28.8438 19.9062H27.625V18.6875C27.625 18.472 27.5394 18.2653 27.387 18.113C27.2347 17.9606 27.028 17.875 26.8125 17.875H25.1875C24.972 17.875 24.7653 17.9606 24.613 18.113C24.4606 18.2653 24.375 18.472 24.375 18.6875V19.9062H23.1562C22.9408 19.9062 22.7341 19.9919 22.5817 20.1442C22.4294 20.2966 22.3438 20.5033 22.3438 20.7188V22.3438C22.3438 22.5592 22.4294 22.7659 22.5817 22.9183C22.7341 23.0706 22.9408 23.1562 23.1562 23.1562H24.375ZM23.1562 20.7188H24.375C24.5905 20.7188 24.7972 20.6331 24.9495 20.4808C25.1019 20.3284 25.1875 20.1217 25.1875 19.9062V18.6875H26.8125V19.9062C26.8125 20.1217 26.8981 20.3284 27.0505 20.4808C27.2028 20.6331 27.4095 20.7188 27.625 20.7188H28.8438V22.3438H27.625C27.4095 22.3438 27.2028 22.4294 27.0505 22.5817C26.8981 22.7341 26.8125 22.9408 26.8125 23.1562V24.375H25.1875V23.1562C25.1875 22.9408 25.1019 22.7341 24.9495 22.5817C24.7972 22.4294 24.5905 22.3438 24.375 22.3438H23.1562V20.7188Z" fill="#1C3C6A"/>
<path d="M34.125 16.25H34.9375V15.4375H35.75V14.625H34.9375V13.8125H34.125V14.625H33.3125V15.4375H34.125V16.25Z" fill="#1C3C6A"/>
<path d="M38.1875 17.0625H37.375V16.25H36.5625V17.0625H35.75V17.875H36.5625V18.6875H37.375V17.875H38.1875V17.0625Z" fill="#1C3C6A"/>
<path d="M32.5 26.4062V27.2188H31.6875V28.0312H32.5V28.8438H33.3125V28.0312H34.125V27.2188H33.3125V26.4062H32.5Z" fill="#1C3C6A"/>
<path d="M35.75 23.9688H34.9375V24.7812H34.125V25.5938H34.9375V26.4062H35.75V25.5938H36.5625V24.7812H35.75V23.9688Z" fill="#1C3C6A"/>
<path d="M17.0625 16.25H17.875V15.4375H18.6875V14.625H17.875V13.8125H17.0625V14.625H16.25V15.4375H17.0625V16.25Z" fill="#1C3C6A"/>
<path d="M14.625 18.6875H15.4375V17.875H16.25V17.0625H15.4375V16.25H14.625V17.0625H13.8125V17.875H14.625V18.6875Z" fill="#1C3C6A"/>
<path d="M18.6875 26.4062V27.2188H17.875V28.0312H18.6875V28.8438H19.5V28.0312H20.3125V27.2188H19.5V26.4062H18.6875Z" fill="#1C3C6A"/>
<path d="M17.0625 26.4062V25.5938H17.875V24.7812H17.0625V23.9688H16.25V24.7812H15.4375V25.5938H16.25V26.4062H17.0625Z" fill="#1C3C6A"/>
</svg>
